<svg width="178" height="48" viewBox="0 0 178 48" fill="none" xmlns="http://www.w3.org/2000/svg">
<path d="M7.824 26.52H2.96L2.064 29H0.528L4.56 17.912H6.24L10.256 29H8.72L7.824 26.52ZM7.408 25.336L5.392 19.704L3.376 25.336H7.408ZM11.4693 24.6C11.4693 23.6933 11.6506 22.904 12.0133 22.232C12.3759 21.5493 12.8773 21.0213 13.5173 20.648C14.1679 20.2747 14.9093 20.088 15.7413 20.088C16.8186 20.088 17.7039 20.3493 18.3973 20.872C19.1013 21.3947 19.5653 22.12 19.7893 23.048H18.2213C18.0719 22.5147 17.7786 22.0933 17.3413 21.784C16.9146 21.4747 16.3813 21.32 15.7413 21.32C14.9093 21.32 14.2373 21.608 13.7253 22.184C13.2133 22.7493 12.9573 23.5547 12.9573 24.6C12.9573 25.656 13.2133 26.472 13.7253 27.048C14.2373 27.624 14.9093 27.912 15.7413 27.912C16.3813 27.912 16.9146 27.7627 17.3413 27.464C17.7679 27.1653 18.0613 26.7387 18.2213 26.184H19.7893C19.5546 27.08 19.0853 27.8 18.3813 28.344C17.6773 28.8773 16.7973 29.144 15.7413 29.144C14.9093 29.144 14.1679 28.9573 13.5173 28.584C12.8773 28.2107 12.3759 27.6827 12.0133 27C11.6506 26.3173 11.4693 25.5173 11.4693 24.6ZM21.188 24.584C21.188 23.688 21.3693 22.904 21.732 22.232C22.0947 21.5493 22.5907 21.0213 23.22 20.648C23.86 20.2747 24.5693 20.088 25.348 20.088C26.116 20.088 26.7827 20.2533 27.348 20.584C27.9133 20.9147 28.3347 21.3307 28.612 21.832V20.232H30.084V29H28.612V27.368C28.324 27.88 27.892 28.3067 27.316 28.648C26.7507 28.9787 26.0893 29.144 25.332 29.144C24.5533 29.144 23.8493 28.952 23.22 28.568C22.5907 28.184 22.0947 27.6453 21.732 26.952C21.3693 26.2587 21.188 25.4693 21.188 24.584ZM28.612 24.6C28.612 23.9387 28.4787 23.3627 28.212 22.872C27.9453 22.3813 27.5827 22.008 27.124 21.752C26.676 21.4853 26.18 21.352 25.636 21.352C25.092 21.352 24.596 21.48 24.148 21.736C23.7 21.992 23.3427 22.3653 23.076 22.856C22.8093 23.3467 22.676 23.9227 22.676 24.584C22.676 25.256 22.8093 25.8427 23.076 26.344C23.3427 26.8347 23.7 27.2133 24.148 27.48C24.596 27.736 25.092 27.864 25.636 27.864C26.18 27.864 26.676 27.736 27.124 27.48C27.5827 27.2133 27.9453 26.8347 28.212 26.344C28.4787 25.8427 28.612 25.2613 28.612 24.6ZM32.0005 24.584C32.0005 23.688 32.1818 22.904 32.5445 22.232C32.9072 21.5493 33.4032 21.0213 34.0325 20.648C34.6725 20.2747 35.3872 20.088 36.1765 20.088C36.8592 20.088 37.4938 20.248 38.0805 20.568C38.6672 20.8773 39.1152 21.288 39.4245 21.8V17.16H40.8965V29H39.4245V27.352C39.1365 27.8747 38.7098 28.3067 38.1445 28.648C37.5792 28.9787 36.9178 29.144 36.1605 29.144C35.3818 29.144 34.6725 28.952 34.0325 28.568C33.4032 28.184 32.9072 27.6453 32.5445 26.952C32.1818 26.2587 32.0005 25.4693 32.0005 24.584ZM39.4245 24.6C39.4245 23.9387 39.2912 23.3627 39.0245 22.872C38.7578 22.3813 38.3952 22.008 37.9365 21.752C37.4885 21.4853 36.9925 21.352 36.4485 21.352C35.9045 21.352 35.4085 21.48 34.9605 21.736C34.5125 21.992 34.1552 22.3653 33.8885 22.856C33.6218 23.3467 33.4885 23.9227 33.4885 24.584C33.4885 25.256 33.6218 25.8427 33.8885 26.344C34.1552 26.8347 34.5125 27.2133 34.9605 27.48C35.4085 27.736 35.9045 27.864 36.4485 27.864C36.9925 27.864 37.4885 27.736 37.9365 27.48C38.3952 27.2133 38.7578 26.8347 39.0245 26.344C39.2912 25.8427 39.4245 25.2613 39.4245 24.6ZM51.357 24.28C51.357 24.5573 51.341 24.8507 51.309 25.16H44.301C44.3543 26.024 44.6477 26.7013 45.181 27.192C45.725 27.672 46.381 27.912 47.149 27.912C47.7783 27.912 48.301 27.768 48.717 27.48C49.1437 27.1813 49.4423 26.7867 49.613 26.296H51.181C50.9463 27.1387 50.477 27.8267 49.773 28.36C49.069 28.8827 48.1943 29.144 47.149 29.144C46.317 29.144 45.5703 28.9573 44.909 28.584C44.2583 28.2107 43.7463 27.6827 43.373 27C42.9997 26.3067 42.813 25.5067 42.813 24.6C42.813 23.6933 42.9943 22.8987 43.357 22.216C43.7197 21.5333 44.2263 21.0107 44.877 20.648C45.5383 20.2747 46.2957 20.088 47.149 20.088C47.981 20.088 48.717 20.2693 49.357 20.632C49.997 20.9947 50.4877 21.496 50.829 22.136C51.181 22.7653 51.357 23.48 51.357 24.28ZM49.853 23.976C49.853 23.4213 49.7303 22.9467 49.485 22.552C49.2397 22.1467 48.9037 21.8427 48.477 21.64C48.061 21.4267 47.597 21.32 47.085 21.32C46.349 21.32 45.7197 21.5547 45.197 22.024C44.685 22.4933 44.3917 23.144 44.317 23.976H49.853ZM63.8229 20.072C64.5055 20.072 65.1135 20.216 65.6469 20.504C66.1802 20.7813 66.6015 21.2027 66.9109 21.768C67.2202 22.3333 67.3749 23.0213 67.3749 23.832V29H65.9349V24.04C65.9349 23.1653 65.7162 22.4987 65.2789 22.04C64.8522 21.5707 64.2709 21.336 63.5349 21.336C62.7775 21.336 62.1749 21.5813 61.7269 22.072C61.2789 22.552 61.0549 23.2507 61.0549 24.168V29H59.6149V24.04C59.6149 23.1653 59.3962 22.4987 58.9589 22.04C58.5322 21.5707 57.9509 21.336 57.2149 21.336C56.4575 21.336 55.8549 21.5813 55.4069 22.072C54.9589 22.552 54.7349 23.2507 54.7349 24.168V29H53.2789V20.232H54.7349V21.496C55.0229 21.0373 55.4069 20.6853 55.8869 20.44C56.3775 20.1947 56.9162 20.072 57.5029 20.072C58.2389 20.072 58.8895 20.2373 59.4549 20.568C60.0202 20.8987 60.4415 21.384 60.7189 22.024C60.9642 21.4053 61.3695 20.9253 61.9349 20.584C62.5002 20.2427 63.1295 20.072 63.8229 20.072ZM70.5153 18.808C70.2379 18.808 70.0033 18.712 69.8113 18.52C69.6193 18.328 69.5233 18.0933 69.5233 17.816C69.5233 17.5387 69.6193 17.304 69.8113 17.112C70.0033 16.92 70.2379 16.824 70.5153 16.824C70.7819 16.824 71.0059 16.92 71.1873 17.112C71.3793 17.304 71.4753 17.5387 71.4753 17.816C71.4753 18.0933 71.3793 18.328 71.1873 18.52C71.0059 18.712 70.7819 18.808 70.5153 18.808ZM71.2193 20.232V29H69.7633V20.232H71.2193ZM73.1568 24.584C73.1568 23.688 73.3381 22.904 73.7008 22.232C74.0634 21.5493 74.5594 21.0213 75.1888 20.648C75.8288 20.2747 76.5381 20.088 77.3168 20.088C78.0848 20.088 78.7514 20.2533 79.3168 20.584C79.8821 20.9147 80.3034 21.3307 80.5808 21.832V20.232H82.0528V29H80.5808V27.368C80.2928 27.88 79.8608 28.3067 79.2848 28.648C78.7194 28.9787 78.0581 29.144 77.3008 29.144C76.5221 29.144 75.8181 28.952 75.1888 28.568C74.5594 28.184 74.0634 27.6453 73.7008 26.952C73.3381 26.2587 73.1568 25.4693 73.1568 24.584ZM80.5808 24.6C80.5808 23.9387 80.4474 23.3627 80.1808 22.872C79.9141 22.3813 79.5514 22.008 79.0928 21.752C78.6448 21.4853 78.1488 21.352 77.6048 21.352C77.0608 21.352 76.5648 21.48 76.1168 21.736C75.6688 21.992 75.3114 22.3653 75.0448 22.856C74.7781 23.3467 74.6448 23.9227 74.6448 24.584C74.6448 25.256 74.7781 25.8427 75.0448 26.344C75.3114 26.8347 75.6688 27.2133 76.1168 27.48C76.5648 27.736 77.0608 27.864 77.6048 27.864C78.1488 27.864 78.6448 27.736 79.0928 27.48C79.5514 27.2133 79.9141 26.8347 80.1808 26.344C80.4474 25.8427 80.5808 25.2613 80.5808 24.6Z" fill="white"/>
<path d="M117.789 30.112C117.053 30.112 116.391 29.984 115.805 29.728C115.229 29.4613 114.775 29.0987 114.445 28.64C114.114 28.1707 113.943 27.632 113.933 27.024H115.485C115.538 27.5467 115.751 27.9893 116.125 28.352C116.509 28.704 117.063 28.88 117.789 28.88C118.482 28.88 119.026 28.7093 119.421 28.368C119.826 28.016 120.029 27.568 120.029 27.024C120.029 26.5973 119.911 26.2507 119.677 25.984C119.442 25.7173 119.149 25.5147 118.797 25.376C118.445 25.2373 117.97 25.088 117.373 24.928C116.637 24.736 116.045 24.544 115.597 24.352C115.159 24.16 114.781 23.8613 114.461 23.456C114.151 23.04 113.997 22.4853 113.997 21.792C113.997 21.184 114.151 20.6453 114.461 20.176C114.77 19.7067 115.202 19.344 115.757 19.088C116.322 18.832 116.967 18.704 117.693 18.704C118.738 18.704 119.591 18.9653 120.253 19.488C120.925 20.0107 121.303 20.704 121.389 21.568H119.789C119.735 21.1413 119.511 20.768 119.117 20.448C118.722 20.1173 118.199 19.952 117.549 19.952C116.941 19.952 116.445 20.112 116.061 20.432C115.677 20.7413 115.485 21.1787 115.485 21.744C115.485 22.1493 115.597 22.48 115.821 22.736C116.055 22.992 116.338 23.1893 116.669 23.328C117.01 23.456 117.485 23.6053 118.093 23.776C118.829 23.9787 119.421 24.1813 119.869 24.384C120.317 24.576 120.701 24.88 121.021 25.296C121.341 25.7013 121.501 26.256 121.501 26.96C121.501 27.504 121.357 28.016 121.069 28.496C120.781 28.976 120.354 29.3653 119.789 29.664C119.223 29.9627 118.557 30.112 117.789 30.112ZM131.419 21.232V30H129.963V28.704C129.686 29.152 129.296 29.504 128.795 29.76C128.304 30.0053 127.76 30.128 127.163 30.128C126.48 30.128 125.867 29.9893 125.323 29.712C124.779 29.424 124.347 28.9973 124.027 28.432C123.718 27.8667 123.563 27.1787 123.563 26.368V21.232H125.003V26.176C125.003 27.04 125.222 27.7067 125.659 28.176C126.096 28.6347 126.694 28.864 127.451 28.864C128.23 28.864 128.843 28.624 129.291 28.144C129.739 27.664 129.963 26.9653 129.963 26.048V21.232H131.419ZM135.334 22.848C135.622 22.3467 136.048 21.9307 136.614 21.6C137.19 21.2587 137.856 21.088 138.614 21.088C139.392 21.088 140.096 21.2747 140.726 21.648C141.366 22.0213 141.867 22.5493 142.23 23.232C142.592 23.904 142.774 24.688 142.774 25.584C142.774 26.4693 142.592 27.2587 142.23 27.952C141.867 28.6453 141.366 29.184 140.726 29.568C140.096 29.952 139.392 30.144 138.614 30.144C137.867 30.144 137.206 29.9787 136.63 29.648C136.064 29.3067 135.632 28.8853 135.334 28.384V34.16H133.878V21.232H135.334V22.848ZM141.286 25.584C141.286 24.9227 141.152 24.3467 140.886 23.856C140.619 23.3653 140.256 22.992 139.798 22.736C139.35 22.48 138.854 22.352 138.31 22.352C137.776 22.352 137.28 22.4853 136.822 22.752C136.374 23.008 136.011 23.3867 135.734 23.888C135.467 24.3787 135.334 24.9493 135.334 25.6C135.334 26.2613 135.467 26.8427 135.734 27.344C136.011 27.8347 136.374 28.2133 136.822 28.48C137.28 28.736 137.776 28.864 138.31 28.864C138.854 28.864 139.35 28.736 139.798 28.48C140.256 28.2133 140.619 27.8347 140.886 27.344C141.152 26.8427 141.286 26.256 141.286 25.584ZM144.146 25.584C144.146 24.688 144.327 23.904 144.69 23.232C145.053 22.5493 145.549 22.0213 146.178 21.648C146.818 21.2747 147.527 21.088 148.306 21.088C149.074 21.088 149.741 21.2533 150.306 21.584C150.871 21.9147 151.293 22.3307 151.57 22.832V21.232H153.042V30H151.57V28.368C151.282 28.88 150.85 29.3067 150.274 29.648C149.709 29.9787 149.047 30.144 148.29 30.144C147.511 30.144 146.807 29.952 146.178 29.568C145.549 29.184 145.053 28.6453 144.69 27.952C144.327 27.2587 144.146 26.4693 144.146 25.584ZM151.57 25.6C151.57 24.9387 151.437 24.3627 151.17 23.872C150.903 23.3813 150.541 23.008 150.082 22.752C149.634 22.4853 149.138 22.352 148.594 22.352C148.05 22.352 147.554 22.48 147.106 22.736C146.658 22.992 146.301 23.3653 146.034 23.856C145.767 24.3467 145.634 24.9227 145.634 25.584C145.634 26.256 145.767 26.8427 146.034 27.344C146.301 27.8347 146.658 28.2133 147.106 28.48C147.554 28.736 148.05 28.864 148.594 28.864C149.138 28.864 149.634 28.736 150.082 28.48C150.541 28.2133 150.903 27.8347 151.17 27.344C151.437 26.8427 151.57 26.2613 151.57 25.6ZM156.959 22.848C157.247 22.3467 157.673 21.9307 158.239 21.6C158.815 21.2587 159.481 21.088 160.239 21.088C161.017 21.088 161.721 21.2747 162.351 21.648C162.991 22.0213 163.492 22.5493 163.855 23.232C164.217 23.904 164.399 24.688 164.399 25.584C164.399 26.4693 164.217 27.2587 163.855 27.952C163.492 28.6453 162.991 29.184 162.351 29.568C161.721 29.952 161.017 30.144 160.239 30.144C159.492 30.144 158.831 29.9787 158.255 29.648C157.689 29.3067 157.257 28.8853 156.959 28.384V34.16H155.503V21.232H156.959V22.848ZM162.911 25.584C162.911 24.9227 162.777 24.3467 162.511 23.856C162.244 23.3653 161.881 22.992 161.423 22.736C160.975 22.48 160.479 22.352 159.935 22.352C159.401 22.352 158.905 22.4853 158.447 22.752C157.999 23.008 157.636 23.3867 157.359 23.888C157.092 24.3787 156.959 24.9493 156.959 25.6C156.959 26.2613 157.092 26.8427 157.359 27.344C157.636 27.8347 157.999 28.2133 158.447 28.48C158.905 28.736 159.401 28.864 159.935 28.864C160.479 28.864 160.975 28.736 161.423 28.48C161.881 28.2133 162.244 27.8347 162.511 27.344C162.777 26.8427 162.911 26.256 162.911 25.584ZM170.139 30.144C169.318 30.144 168.571 29.9573 167.899 29.584C167.238 29.2107 166.715 28.6827 166.331 28C165.958 27.3067 165.771 26.5067 165.771 25.6C165.771 24.704 165.963 23.9147 166.347 23.232C166.742 22.5387 167.275 22.0107 167.947 21.648C168.619 21.2747 169.371 21.088 170.203 21.088C171.035 21.088 171.787 21.2747 172.459 21.648C173.131 22.0107 173.659 22.5333 174.043 23.216C174.438 23.8987 174.635 24.6933 174.635 25.6C174.635 26.5067 174.432 27.3067 174.027 28C173.632 28.6827 173.094 29.2107 172.411 29.584C171.728 29.9573 170.971 30.144 170.139 30.144ZM170.139 28.864C170.662 28.864 171.152 28.7413 171.611 28.496C172.07 28.2507 172.438 27.8827 172.715 27.392C173.003 26.9013 173.147 26.304 173.147 25.6C173.147 24.896 173.008 24.2987 172.731 23.808C172.454 23.3173 172.091 22.9547 171.643 22.72C171.195 22.4747 170.71 22.352 170.187 22.352C169.654 22.352 169.163 22.4747 168.715 22.72C168.278 22.9547 167.926 23.3173 167.659 23.808C167.392 24.2987 167.259 24.896 167.259 25.6C167.259 26.3147 167.387 26.9173 167.643 27.408C167.91 27.8987 168.262 28.2667 168.699 28.512C169.136 28.7467 169.616 28.864 170.139 28.864Z" fill="white"/>
<rect width="3" height="18" rx="1.5" transform="matrix(-0.000612531 1 1 0.000612531 90.0205 6.99683)" fill="white"/>
<rect width="3" height="23" rx="1.5" transform="matrix(-1 -0.000612493 -0.000612479 1 101.018 12.0034)" fill="#FF4C29"/>
<rect width="3" height="9" rx="1.5" transform="matrix(-0.000612531 1 1 0.000612531 95.0244 0)" fill="white"/>
<rect width="3" height="18" rx="1.5" transform="matrix(-0.000612531 1 1 0.000612531 90.002 36.9968)" fill="white"/>
<rect width="3" height="9" rx="1.5" transform="matrix(-0.000612531 1 1 0.000612531 94.998 43.9998)" fill="white"/>
</svg>
